# xmcd CD database file generated by OrangeCD 4.2
#
# Track frame offsets:
#	150
#	14367
#	30025
#	47647
#	68145
#	82815
#	99762
#	121877
#	132237
#	150255
#	173887
#
# Disc length: 2495 seconds
#
# Revision: 0
# Processed by: cddbd v1.4PL0 Copyright (c) Steve Scherf et al.
# Submitted via: OrangeCD 4.2
#
DISCID=6f09bd0b
DTITLE=Grady Champion - Goin' Back Home
DYEAR=1900
DGENRE=Blues
TTITLE0=Scratch My Back
TTITLE1=Born Blind
TTITLE2=Brother, Brother
TTITLE3=Love and Memories (My Mama's Song)
TTITLE4=Goin' Back Home
TTITLE5=Stay Away
TTITLE6=Blues on Christmas
TTITLE7=My Baby Still Loves Me
TTITLE8=1-800-BLU-LOVE
TTITLE9=Voodoo Girl
TTITLE10=Blues on Christmas (Traditional)
EXTD=
EXTT0=
EXTT1=
EXTT2=
EXTT3=
EXTT4=
EXTT5=
EXTT6=
EXTT7=
EXTT8=
EXTT9=
EXTT10=
PLAYORDER=
